<?xml version="1.0" standalone="no"?>
<!DOCTYPE svg PUBLIC "-//W3C//DTD SVG 20010904//EN"
 "http://www.w3.org/TR/2001/REC-SVG-20010904/DTD/svg10.dtd">
<svg version="1.0" xmlns="http://www.w3.org/2000/svg"
 width="512.000000pt" height="512.000000pt" viewBox="0 0 512.000000 512.000000"
 preserveAspectRatio="xMidYMid meet">
<metadata>
Created by potrace 1.11, written by Peter Selinger 2001-2013
</metadata>
<g transform="translate(0.000000,512.000000) scale(0.100000,-0.100000)"
fill="#000000" stroke="none">
<path d="M706 4808 l-33 -33 -6 -849 c-3 -467 -3 -1363 0 -1990 5 -979 7
-1144 20 -1164 30 -48 60 -52 374 -52 321 0 344 4 371 61 l15 29 13 -25 c31
-58 39 -60 355 -63 317 -3 352 1 388 50 20 26 20 44 22 945 2 1232 5 1641 12
1623 4 -8 362 -523 798 -1145 435 -621 833 -1191 884 -1265 52 -74 107 -150
124 -167 34 -37 79 -49 119 -34 26 10 454 307 495 344 25 22 38 74 29 111 -6
26 -1769 2550 -1814 2598 -30 32 -76 44 -114 29 -39 -15 -484 -328 -506 -356
-19 -24 -19 -22 -25 118 -4 78 -7 204 -7 279 l0 138 -29 32 -29 33 -311 3
c-340 3 -358 0 -384 -55 -10 -22 -13 48 -17 367 -5 356 -7 398 -23 421 -32 47
-48 49 -378 49 l-311 0 -32 -32z"/>
<path d="M0 500 l0 -110 317 -2 316 -3 17 -50 17 -50 279 -3 280 -2 18 55 17
55 1299 0 1299 0 17 -55 18 -55 280 2 279 3 17 50 17 50 316 3 317 2 0 110 0
110 -2560 0 -2560 0 0 -110z"/>
</g>
</svg>
